<svg xmlns="http://www.w3.org/2000/svg" viewBox="0 0 300 250" fill="none">
  <rect width="300" height="250" fill="#0a0a0a"/>

  <!-- Gear 1 (large) — cx=130 cy=110 r=35, rotates clockwise -->
  <g>
    <animateTransform attributeName="transform" type="rotate" from="0 130 110" to="360 130 110" dur="20s" repeatCount="indefinite"/>
    <circle cx="130" cy="110" r="35" stroke="#525252" stroke-width="1" fill="none"/>
    <circle cx="130" cy="110" r="25" stroke="#1e1e1e" stroke-width="0.8" fill="none"/>
    <!-- Cardinal teeth (centered on circle edge, 6px long) -->
    <line x1="130" y1="72" x2="130" y2="78" stroke="#525252" stroke-width="4"/>
    <line x1="130" y1="142" x2="130" y2="148" stroke="#525252" stroke-width="4"/>
    <line x1="92" y1="110" x2="98" y2="110" stroke="#525252" stroke-width="4"/>
    <line x1="162" y1="110" x2="168" y2="110" stroke="#525252" stroke-width="4"/>
    <!-- Diagonal teeth (45°: edge at ±24.75, tooth ±2.12 along radial) -->
    <!-- 45° upper-right -->
    <line x1="152.63" y1="87.37" x2="156.87" y2="83.13" stroke="#525252" stroke-width="4"/>
    <!-- 135° upper-left -->
    <line x1="107.37" y1="87.37" x2="103.13" y2="83.13" stroke="#525252" stroke-width="4"/>
    <!-- 225° lower-left -->
    <line x1="107.37" y1="132.63" x2="103.13" y2="136.87" stroke="#525252" stroke-width="4"/>
    <!-- 315° lower-right -->
    <line x1="152.63" y1="132.63" x2="156.87" y2="136.87" stroke="#525252" stroke-width="4"/>
  </g>
  <circle cx="130" cy="110" r="8" stroke="#f59e0b" stroke-width="1" fill="#f59e0b" fill-opacity="0.1"/>

  <!-- Gear 2 (small) — cx=190 cy=80 r=22, rotates counter-clockwise -->
  <g>
    <animateTransform attributeName="transform" type="rotate" from="0 190 80" to="-360 190 80" dur="12.6s" repeatCount="indefinite"/>
    <circle cx="190" cy="80" r="22" stroke="#525252" stroke-width="1" fill="none"/>
    <circle cx="190" cy="80" r="14" stroke="#1e1e1e" stroke-width="0.8" fill="none"/>
    <!-- Cardinal teeth (centered on circle edge, 6px long) -->
    <line x1="190" y1="55" x2="190" y2="61" stroke="#525252" stroke-width="3"/>
    <line x1="190" y1="99" x2="190" y2="105" stroke="#525252" stroke-width="3"/>
    <line x1="165" y1="80" x2="171" y2="80" stroke="#525252" stroke-width="3"/>
    <line x1="209" y1="80" x2="215" y2="80" stroke="#525252" stroke-width="3"/>
    <!-- Diagonal teeth (45°: edge at ±15.56, tooth ±2.12 along radial) -->
    <!-- 45° upper-right -->
    <line x1="203.44" y1="66.56" x2="207.68" y2="62.32" stroke="#525252" stroke-width="3"/>
    <!-- 135° upper-left -->
    <line x1="176.56" y1="66.56" x2="172.32" y2="62.32" stroke="#525252" stroke-width="3"/>
    <!-- 225° lower-left -->
    <line x1="176.56" y1="93.44" x2="172.32" y2="97.68" stroke="#525252" stroke-width="3"/>
    <!-- 315° lower-right -->
    <line x1="203.44" y1="93.44" x2="207.68" y2="97.68" stroke="#525252" stroke-width="3"/>
  </g>
  <circle cx="190" cy="80" r="5" stroke="#f59e0b" stroke-width="1" fill="#f59e0b" fill-opacity="0.1"/>

  <!-- Package boxes flowing in — gentle drift -->
  <g>
    <animateTransform attributeName="transform" type="translate" values="0,0;4,-2;0,0" dur="4s" repeatCount="indefinite"/>
    <rect x="60" y="170" width="18" height="14" stroke="#f59e0b" stroke-width="1" fill="#f59e0b" fill-opacity="0.05"/>
    <line x1="60" y1="175" x2="78" y2="175" stroke="#f59e0b" stroke-width="0.5" opacity="0.4"/>
  </g>

  <g>
    <animateTransform attributeName="transform" type="translate" values="0,0;3,-1.5;0,0" dur="4s" begin="0.8s" repeatCount="indefinite"/>
    <rect x="95" y="185" width="18" height="14" stroke="#f59e0b" stroke-width="1" fill="#f59e0b" fill-opacity="0.05"/>
    <line x1="95" y1="190" x2="113" y2="190" stroke="#f59e0b" stroke-width="0.5" opacity="0.4"/>
  </g>

  <g>
    <animateTransform attributeName="transform" type="translate" values="0,0;2,-1;0,0" dur="4s" begin="1.6s" repeatCount="indefinite"/>
    <rect x="130" y="175" width="18" height="14" stroke="#525252" stroke-width="1" fill="none"/>
    <line x1="130" y1="180" x2="148" y2="180" stroke="#525252" stroke-width="0.5"/>
  </g>

  <!-- Flow arrows -->
  <path d="M78 177 L95 185" stroke="#1e1e1e" stroke-width="0.8" stroke-dasharray="3 3"/>
  <path d="M113 192 L130 182" stroke="#1e1e1e" stroke-width="0.8" stroke-dasharray="3 3"/>
  <path d="M148 180 L170 160" stroke="#1e1e1e" stroke-width="0.8" stroke-dasharray="3 3"/>

  <!-- Label -->
  <text x="150" y="230" text-anchor="middle" font-family="monospace" font-size="8" fill="#525252">apk add ...</text>
</svg>
